<svg width="175" height="32" viewBox="0 0 175 32" fill="none" xmlns="http://www.w3.org/2000/svg">
<path d="M9.816 25.384C8.30133 25.384 6.89333 25.1067 5.592 24.552C4.312 23.9973 3.20267 23.2293 2.264 22.248C1.34667 21.2453 0.674667 20.0827 0.248 18.76L3.864 17.192C4.44 18.5573 5.272 19.6347 6.36 20.424C7.448 21.192 8.67467 21.576 10.04 21.576C10.808 21.576 11.4693 21.4587 12.024 21.224C12.6 20.968 13.0373 20.6267 13.336 20.2C13.656 19.7733 13.816 19.2613 13.816 18.664C13.816 17.96 13.6027 17.384 13.176 16.936C12.7707 16.4667 12.152 16.104 11.32 15.848L6.744 14.376C4.888 13.8 3.49067 12.936 2.552 11.784C1.61333 10.632 1.144 9.27733 1.144 7.72C1.144 6.35467 1.47467 5.14933 2.136 4.104C2.81867 3.05867 3.75733 2.248 4.952 1.672C6.168 1.07467 7.55467 0.775999 9.112 0.775999C10.5413 0.775999 11.8533 1.032 13.048 1.544C14.2427 2.03467 15.2667 2.728 16.12 3.624C16.9947 4.49867 17.6453 5.53333 18.072 6.728L14.488 8.328C14.0187 7.13333 13.3147 6.216 12.376 5.576C11.4373 4.91467 10.3493 4.584 9.112 4.584C8.38667 4.584 7.74667 4.712 7.192 4.968C6.63733 5.20267 6.2 5.544 5.88 5.992C5.58133 6.41867 5.432 6.93067 5.432 7.528C5.432 8.18933 5.64533 8.776 6.072 9.288C6.49867 9.77867 7.14933 10.1627 8.024 10.44L12.408 11.816C14.3067 12.4347 15.7253 13.288 16.664 14.376C17.624 15.464 18.104 16.808 18.104 18.408C18.104 19.7733 17.752 20.9787 17.048 22.024C16.344 23.0693 15.3733 23.8907 14.136 24.488C12.8987 25.0853 11.4587 25.384 9.816 25.384ZM21.6708 25V7.592H25.8628V25H21.6708ZM21.6708 5.64V1.16H25.8628V5.64H21.6708ZM31.8453 32.04C31.3759 32.04 30.9173 31.9973 30.4693 31.912C30.0213 31.848 29.6159 31.72 29.2533 31.528V28.04C29.5306 28.104 29.8613 28.168 30.2453 28.232C30.6506 28.296 31.0239 28.328 31.3653 28.328C32.3253 28.328 33.0186 28.104 33.4453 27.656C33.8933 27.2293 34.2879 26.6533 34.6293 25.928L35.7812 23.24L35.7173 26.76L28.1333 7.592H32.6453L37.9573 21.736H36.3573L41.6373 7.592H46.1813L38.5973 26.76C38.1493 27.8693 37.6053 28.8187 36.9653 29.608C36.3252 30.3973 35.5786 30.9947 34.7253 31.4C33.8933 31.8267 32.9333 32.04 31.8453 32.04ZM53.1383 25.384C51.9223 25.384 50.8663 25.1813 49.9703 24.776C49.0743 24.3707 48.3809 23.7947 47.8903 23.048C47.3996 22.28 47.1543 21.3947 47.1543 20.392C47.1543 19.432 47.3676 18.5787 47.7943 17.832C48.2209 17.064 48.8823 16.424 49.7783 15.912C50.6743 15.4 51.8049 15.0373 53.1703 14.824L58.8663 13.896V17.096L53.9703 17.928C53.1383 18.0773 52.5196 18.344 52.1143 18.728C51.7089 19.112 51.5063 19.6133 51.5063 20.232C51.5063 20.8293 51.7303 21.3093 52.1783 21.672C52.6476 22.0133 53.2236 22.184 53.9062 22.184C54.7809 22.184 55.5489 22.0027 56.2103 21.64C56.8929 21.256 57.4156 20.7333 57.7783 20.072C58.1623 19.4107 58.3543 18.6853 58.3543 17.896V13.416C58.3543 12.6693 58.0556 12.0507 57.4583 11.56C56.8823 11.048 56.1143 10.792 55.1543 10.792C54.2583 10.792 53.4583 11.0373 52.7543 11.528C52.0716 11.9973 51.5703 12.6267 51.2503 13.416L47.8263 11.752C48.1676 10.8347 48.7009 10.0453 49.4263 9.384C50.1729 8.70133 51.0476 8.168 52.0503 7.784C53.0529 7.4 54.1409 7.208 55.3142 7.208C56.7436 7.208 58.0023 7.47467 59.0903 8.008C60.1783 8.52 61.0209 9.24533 61.6183 10.184C62.2369 11.1013 62.5463 12.1787 62.5463 13.416V25H58.5783V22.024L59.4743 21.96C59.0263 22.7067 58.4929 23.336 57.8743 23.848C57.2556 24.3387 56.5516 24.7227 55.7623 25C54.9729 25.256 54.0983 25.384 53.1383 25.384ZM66.4208 25V7.592H70.3568V11.464L70.0368 10.888C70.4421 9.58667 71.0714 8.68 71.9248 8.168C72.7994 7.656 73.8448 7.4 75.0608 7.4H76.0848V11.112H74.5808C73.3861 11.112 72.4261 11.4853 71.7008 12.232C70.9754 12.9573 70.6128 13.9813 70.6128 15.304V25H66.4208ZM83.6695 25.384C82.4535 25.384 81.3975 25.1813 80.5015 24.776C79.6055 24.3707 78.9122 23.7947 78.4215 23.048C77.9308 22.28 77.6855 21.3947 77.6855 20.392C77.6855 19.432 77.8988 18.5787 78.3255 17.832C78.7522 17.064 79.4135 16.424 80.3095 15.912C81.2055 15.4 82.3362 15.0373 83.7015 14.824L89.3975 13.896V17.096L84.5015 17.928C83.6695 18.0773 83.0508 18.344 82.6455 18.728C82.2402 19.112 82.0375 19.6133 82.0375 20.232C82.0375 20.8293 82.2615 21.3093 82.7095 21.672C83.1788 22.0133 83.7548 22.184 84.4375 22.184C85.3122 22.184 86.0802 22.0027 86.7415 21.64C87.4242 21.256 87.9468 20.7333 88.3095 20.072C88.6935 19.4107 88.8855 18.6853 88.8855 17.896V13.416C88.8855 12.6693 88.5868 12.0507 87.9895 11.56C87.4135 11.048 86.6455 10.792 85.6855 10.792C84.7895 10.792 83.9895 11.0373 83.2855 11.528C82.6028 11.9973 82.1015 12.6267 81.7815 13.416L78.3575 11.752C78.6988 10.8347 79.2322 10.0453 79.9575 9.384C80.7042 8.70133 81.5788 8.168 82.5815 7.784C83.5842 7.4 84.6722 7.208 85.8455 7.208C87.2748 7.208 88.5335 7.47467 89.6215 8.008C90.7095 8.52 91.5522 9.24533 92.1495 10.184C92.7682 11.1013 93.0775 12.1787 93.0775 13.416V25H89.1095V22.024L90.0055 21.96C89.5575 22.7067 89.0242 23.336 88.4055 23.848C87.7868 24.3387 87.0828 24.7227 86.2935 25C85.5042 25.256 84.6295 25.384 83.6695 25.384ZM97.304 25V1.16H113.144V5H101.656V11.112H112.504V14.952H101.656V21.16H113.144V25H97.304ZM124.079 25.384C122.394 25.384 120.89 24.9893 119.567 24.2C118.245 23.3893 117.199 22.2907 116.431 20.904C115.663 19.5173 115.279 17.9813 115.279 16.296C115.279 14.5893 115.663 13.0533 116.431 11.688C117.199 10.3227 118.245 9.23467 119.567 8.424C120.911 7.61333 122.405 7.208 124.047 7.208C125.37 7.208 126.543 7.47467 127.567 8.008C128.613 8.52 129.434 9.24533 130.031 10.184L129.391 11.048V0.775999H133.583V25H129.615V21.64L130.063 22.472C129.466 23.4107 128.634 24.136 127.567 24.648C126.501 25.1387 125.338 25.384 124.079 25.384ZM124.527 21.544C125.487 21.544 126.33 21.32 127.055 20.872C127.781 20.424 128.346 19.8053 128.751 19.016C129.178 18.2267 129.391 17.32 129.391 16.296C129.391 15.2933 129.178 14.3973 128.751 13.608C128.346 12.7973 127.781 12.168 127.055 11.72C126.33 11.272 125.487 11.048 124.527 11.048C123.589 11.048 122.746 11.2827 121.999 11.752C121.253 12.2 120.666 12.8187 120.239 13.608C119.834 14.376 119.631 15.272 119.631 16.296C119.631 17.32 119.834 18.2267 120.239 19.016C120.666 19.8053 121.253 20.424 121.999 20.872C122.746 21.32 123.589 21.544 124.527 21.544ZM145.931 32.04C144.63 32.04 143.425 31.8267 142.315 31.4C141.206 30.9733 140.246 30.376 139.435 29.608C138.646 28.8613 138.07 27.976 137.707 26.952L141.611 25.48C141.867 26.2907 142.369 26.9413 143.115 27.432C143.883 27.944 144.822 28.2 145.931 28.2C146.785 28.2 147.531 28.04 148.171 27.72C148.833 27.4 149.345 26.9307 149.707 26.312C150.07 25.7147 150.251 24.9893 150.251 24.136V20.168L151.051 21.128C150.454 22.1733 149.654 22.9627 148.651 23.496C147.649 24.0293 146.507 24.296 145.227 24.296C143.606 24.296 142.155 23.9227 140.875 23.176C139.595 22.4293 138.593 21.4053 137.867 20.104C137.142 18.8027 136.779 17.3413 136.779 15.72C136.779 14.0773 137.142 12.616 137.867 11.336C138.593 10.056 139.585 9.05333 140.843 8.328C142.102 7.58133 143.531 7.208 145.131 7.208C146.433 7.208 147.574 7.48533 148.555 8.04C149.558 8.57333 150.39 9.352 151.051 10.376L150.475 11.432V7.592H154.443V24.136C154.443 25.6507 154.07 27.0053 153.323 28.2C152.598 29.3947 151.595 30.3333 150.315 31.016C149.057 31.6987 147.595 32.04 145.931 32.04ZM145.739 20.424C146.635 20.424 147.414 20.232 148.075 19.848C148.758 19.4427 149.291 18.888 149.675 18.184C150.059 17.48 150.251 16.6693 150.251 15.752C150.251 14.856 150.049 14.056 149.643 13.352C149.259 12.6267 148.726 12.0613 148.043 11.656C147.382 11.2507 146.614 11.048 145.739 11.048C144.865 11.048 144.075 11.2507 143.371 11.656C142.667 12.0613 142.113 12.6267 141.707 13.352C141.323 14.056 141.131 14.856 141.131 15.752C141.131 16.648 141.323 17.448 141.707 18.152C142.113 18.856 142.657 19.4107 143.339 19.816C144.043 20.2213 144.843 20.424 145.739 20.424ZM166.614 25.384C164.822 25.384 163.254 24.9787 161.91 24.168C160.566 23.3573 159.521 22.2587 158.774 20.872C158.028 19.4853 157.654 17.9493 157.654 16.264C157.654 14.5147 158.028 12.968 158.774 11.624C159.542 10.2587 160.577 9.18133 161.878 8.392C163.201 7.60266 164.673 7.208 166.294 7.208C167.66 7.208 168.854 7.432 169.878 7.88C170.924 8.328 171.809 8.94667 172.534 9.736C173.26 10.5253 173.814 11.432 174.198 12.456C174.582 13.4587 174.774 14.5467 174.774 15.72C174.774 16.0187 174.753 16.328 174.71 16.648C174.689 16.968 174.636 17.2453 174.55 17.48H161.11V14.28H172.182L170.198 15.784C170.39 14.8027 170.337 13.928 170.038 13.16C169.761 12.392 169.292 11.784 168.63 11.336C167.99 10.888 167.212 10.664 166.294 10.664C165.42 10.664 164.641 10.888 163.958 11.336C163.276 11.7627 162.753 12.4027 162.39 13.256C162.049 14.088 161.921 15.1013 162.006 16.296C161.921 17.3627 162.06 18.312 162.422 19.144C162.806 19.9547 163.361 20.584 164.086 21.032C164.833 21.48 165.686 21.704 166.646 21.704C167.606 21.704 168.417 21.5013 169.078 21.096C169.761 20.6907 170.294 20.1467 170.678 19.464L174.07 21.128C173.729 21.96 173.196 22.696 172.47 23.336C171.745 23.976 170.881 24.4773 169.878 24.84C168.897 25.2027 167.809 25.384 166.614 25.384Z" fill="#11142D"/>
</svg>
